{
    "asset" : {
        "generator" : "Khronos glTF Blender I/O v1.7.33",
        "version" : "2.0"
    },
    "scene" : 0,
    "scenes" : [
        {
            "name" : "Scene",
            "nodes" : [
                0,
                1,
                2,
                3
            ]
        }
    ],
    "nodes" : [
        {
            "mesh" : 0,
            "name" : "DefaultName",
            "rotation" : [
                0.013369519263505936,
                0.4127078056335449,
                -0.006058450788259506,
                0.9107452034950256
            ]
        },
        {
            "mesh" : 1,
            "name" : "DefaultName.001",
            "rotation" : [
                0.013369519263505936,
                0.4127078056335449,
                -0.006058450788259506,
                0.9107452034950256
            ]
        },
        {
            "mesh" : 2,
            "name" : "DefaultName.002",
            "rotation" : [
                0.013369519263505936,
                0.4127078056335449,
                -0.006058450788259506,
                0.9107452034950256
            ]
        },
        {
            "mesh" : 3,
            "name" : "DefaultName.003",
            "rotation" : [
                0.013369519263505936,
                0.4127078056335449,
                -0.006058450788259506,
                0.9107452034950256
            ]
        }
    ],
    "materials" : [
        {
            "doubleSided" : true,
            "name" : "Material.001",
            "pbrMetallicRoughness" : {}
        },
        {
            "doubleSided" : true,
            "name" : "Material.002",
            "pbrMetallicRoughness" : {}
        },
        {
            "doubleSided" : true,
            "name" : "Material.003",
            "pbrMetallicRoughness" : {}
        },
        {
            "doubleSided" : true,
            "name" : "Material.004",
            "pbrMetallicRoughness" : {}
        }
    ],
    "meshes" : [
        {
            "name" : "Mesh",
            "primitives" : [
                {
                    "attributes" : {
                        "POSITION" : 0,
                        "NORMAL" : 1,
                        "TEXCOORD_0" : 2
                    },
                    "indices" : 3,
                    "material" : 0
                }
            ]
        },
        {
            "name" : "Mesh.001",
            "primitives" : [
                {
                    "attributes" : {
                        "POSITION" : 4,
                        "NORMAL" : 5,
                        "TEXCOORD_0" : 6
                    },
                    "indices" : 7,
                    "material" : 1
                }
            ]
        },
        {
            "name" : "Mesh.002",
            "primitives" : [
                {
                    "attributes" : {
                        "POSITION" : 8,
                        "NORMAL" : 9,
                        "TEXCOORD_0" : 10
                    },
                    "indices" : 11,
                    "material" : 2
                }
            ]
        },
        {
            "name" : "Mesh.003",
            "primitives" : [
                {
                    "attributes" : {
                        "POSITION" : 12,
                        "NORMAL" : 13,
                        "TEXCOORD_0" : 14
                    },
                    "indices" : 15,
                    "material" : 3
                }
            ]
        }
    ],
    "accessors" : [
        {
            "bufferView" : 0,
            "componentType" : 5126,
            "count" : 99043,
            "max" : [
                58.53176498413086,
                10.364930152893066,
                55.89727783203125
            ],
            "min" : [
                -66.23002624511719,
                -0.454740434885025,
                -61.18187713623047
            ],
            "type" : "VEC3"
        },
        {
            "bufferView" : 1,
            "componentType" : 5126,
            "count" : 99043,
            "type" : "VEC3"
        },
        {
            "bufferView" : 2,
            "componentType" : 5126,
            "count" : 99043,
            "type" : "VEC2"
        },
        {
            "bufferView" : 3,
            "componentType" : 5125,
            "count" : 392487,
            "type" : "SCALAR"
        },
        {
            "bufferView" : 4,
            "componentType" : 5126,
            "count" : 70304,
            "max" : [
                58.53077697753906,
                10.360011100769043,
                54.35189437866211
            ],
            "min" : [
                -65.53775787353516,
                -0.5472525954246521,
                -61.18427276611328
            ],
            "type" : "VEC3"
        },
        {
            "bufferView" : 5,
            "componentType" : 5126,
            "count" : 70304,
            "type" : "VEC3"
        },
        {
            "bufferView" : 6,
            "componentType" : 5126,
            "count" : 70304,
            "type" : "VEC2"
        },
        {
            "bufferView" : 7,
            "componentType" : 5125,
            "count" : 337647,
            "type" : "SCALAR"
        },
        {
            "bufferView" : 8,
            "componentType" : 5126,
            "count" : 64459,
            "max" : [
                58.528175354003906,
                10.199955940246582,
                53.01237487792969
            ],
            "min" : [
                -63.0332145690918,
                -0.6000157594680786,
                -59.4929084777832
            ],
            "type" : "VEC3"
        },
        {
            "bufferView" : 9,
            "componentType" : 5126,
            "count" : 64459,
            "type" : "VEC3"
        },
        {
            "bufferView" : 10,
            "componentType" : 5126,
            "count" : 64459,
            "type" : "VEC2"
        },
        {
            "bufferView" : 11,
            "componentType" : 5123,
            "count" : 266163,
            "type" : "SCALAR"
        },
        {
            "bufferView" : 12,
            "componentType" : 5126,
            "count" : 54635,
            "max" : [
                58.38865661621094,
                10.360011100769043,
                56.00367736816406
            ],
            "min" : [
                -67.13371276855469,
                -0.59703129529953,
                -59.28074264526367
            ],
            "type" : "VEC3"
        },
        {
            "bufferView" : 13,
            "componentType" : 5126,
            "count" : 54635,
            "type" : "VEC3"
        },
        {
            "bufferView" : 14,
            "componentType" : 5126,
            "count" : 54635,
            "type" : "VEC2"
        },
        {
            "bufferView" : 15,
            "componentType" : 5123,
            "count" : 210894,
            "type" : "SCALAR"
        }
    ],
    "bufferViews" : [
        {
            "buffer" : 0,
            "byteLength" : 1188516,
            "byteOffset" : 0
        },
        {
            "buffer" : 0,
            "byteLength" : 1188516,
            "byteOffset" : 1188516
        },
        {
            "buffer" : 0,
            "byteLength" : 792344,
            "byteOffset" : 2377032
        },
        {
            "buffer" : 0,
            "byteLength" : 1569948,
            "byteOffset" : 3169376
        },
        {
            "buffer" : 0,
            "byteLength" : 843648,
            "byteOffset" : 4739324
        },
        {
            "buffer" : 0,
            "byteLength" : 843648,
            "byteOffset" : 5582972
        },
        {
            "buffer" : 0,
            "byteLength" : 562432,
            "byteOffset" : 6426620
        },
        {
            "buffer" : 0,
            "byteLength" : 1350588,
            "byteOffset" : 6989052
        },
        {
            "buffer" : 0,
            "byteLength" : 773508,
            "byteOffset" : 8339640
        },
        {
            "buffer" : 0,
            "byteLength" : 773508,
            "byteOffset" : 9113148
        },
        {
            "buffer" : 0,
            "byteLength" : 515672,
            "byteOffset" : 9886656
        },
        {
            "buffer" : 0,
            "byteLength" : 532326,
            "byteOffset" : 10402328
        },
        {
            "buffer" : 0,
            "byteLength" : 655620,
            "byteOffset" : 10934656
        },
        {
            "buffer" : 0,
            "byteLength" : 655620,
            "byteOffset" : 11590276
        },
        {
            "buffer" : 0,
            "byteLength" : 437080,
            "byteOffset" : 12245896
        },
        {
            "buffer" : 0,
            "byteLength" : 421788,
            "byteOffset" : 12682976
        }
    ],
    "buffers" : [
        {
            "byteLength" : 13104764,
            "uri" : "untitled.bin"
        }
    ]
}
